<svg width="16" height="16" viewBox="0 0 16 16" fill="none" xmlns="http://www.w3.org/2000/svg">
<g clip-path="url(#clip0)">
<path d="M15.5663 2.887L13.113 0.433684C12.535 -0.144347 11.5994 -0.144441 11.0213 0.433684C10.6098 0.845216 1.56382 9.89125 1.39129 10.0637C1.3231 10.1319 1.27488 10.2174 1.25191 10.3111L0.0155697 15.346C-0.0793053 15.7325 0.271382 16.0785 0.654038 15.9845C0.91532 15.9203 5.45773 14.8049 5.68894 14.7481C5.78257 14.7252 5.86813 14.6769 5.93629 14.6087C6.11804 14.427 15.1137 5.43134 15.5663 4.97872C16.1443 4.40068 16.1445 3.46509 15.5663 2.887ZM1.24854 14.7515L1.29891 14.5464L1.45363 14.7011L1.24854 14.7515ZM2.65219 14.4068L1.59323 13.3478L2.05373 11.4726L4.52748 13.9463L2.65219 14.4068ZM5.56307 13.4891L2.51094 10.437L10.3924 2.55553L13.4445 5.60765L5.56307 13.4891ZM14.8199 4.23228L14.2103 4.84187L11.1582 1.78975L11.7678 1.18015C11.9332 1.01475 12.2011 1.01459 12.3666 1.18015L14.8199 3.6335C14.9854 3.79897 14.9854 4.06675 14.8199 4.23228Z" fill="white"/>
</g>
<defs>
<clipPath id="clip0">
<rect width="16" height="16" fill="white"/>
</clipPath>
</defs>
</svg>
