<svg width="24" height="24" viewBox="0 0 24 24" fill="none" xmlns="http://www.w3.org/2000/svg">
<g clip-path="url(#clip0)">
<path d="M9.94975 18.2926L7.12171 21.1206C5.94927 22.2931 4.05059 22.2931 2.87913 21.1209C1.70743 19.9492 1.70743 18.0503 2.87889 16.8789L8.53594 11.2218C9.7074 10.0503 11.6063 10.0503 12.7777 11.2218C13.1683 11.6123 13.8014 11.6123 14.192 11.2218C14.5825 10.8313 14.5825 10.1981 14.192 9.80758C12.2394 7.85503 9.07426 7.85503 7.12171 9.80758L1.46471 15.4646C-0.48783 17.4171 -0.48783 20.5823 1.46471 22.5348C3.41702 24.4884 6.58241 24.4884 8.53599 22.5348L11.364 19.7068C11.7545 19.3163 11.7545 18.6831 11.364 18.2926C10.9735 17.902 10.3403 17.9021 9.94975 18.2926Z" fill="white"/>
<path d="M22.5354 1.46437C20.5828 -0.48817 17.4166 -0.48817 15.4641 1.46437L12.0711 4.85739C11.6806 5.24791 11.6806 5.8811 12.0711 6.27162C12.4616 6.66214 13.0948 6.66214 13.4853 6.27162L16.8783 2.8786C18.0498 1.70709 19.9496 1.70709 21.1211 2.8786C22.2926 4.05006 22.2926 5.94893 21.1211 7.12039L14.8991 13.3425C13.7276 14.514 11.8288 14.514 10.6573 13.3425C10.2668 12.952 9.6336 12.952 9.24308 13.3425C8.85257 13.733 8.85257 14.3662 9.24308 14.7567C11.1956 16.7092 14.3608 16.7092 16.3133 14.7567L22.5354 8.53466C24.4879 6.58212 24.4879 3.41692 22.5354 1.46437Z" fill="white"/>
</g>
<defs>
<clipPath id="clip0">
<rect width="24" height="24" fill="white"/>
</clipPath>
</defs>
</svg>
