<svg width="24" height="24" viewBox="0 0 24 24" fill="none" xmlns="http://www.w3.org/2000/svg">
<g clip-path="url(#clip0)">
<path d="M23.7887 4.76781L16.51 11.9996L23.7887 19.2315C23.9203 18.9565 24.0001 18.6524 24.0001 18.3278V5.67151C24.0001 5.34681 23.9203 5.04283 23.7887 4.76781Z" fill="white"/>
<path d="M21.8913 3.5625H2.11C1.7853 3.5625 1.48131 3.64233 1.2063 3.77391L10.5093 13.03C11.3318 13.8526 12.6694 13.8526 13.492 13.03L22.795 3.77391C22.5199 3.64233 22.216 3.5625 21.8913 3.5625Z" fill="white"/>
<path d="M0.211406 4.76781C0.0798281 5.04283 0 5.34681 0 5.67151V18.3278C0 18.6525 0.0798281 18.9565 0.211406 19.2315L7.49011 11.9996L0.211406 4.76781Z" fill="white"/>
<path d="M15.5163 12.9944L14.4863 14.0244C13.1157 15.3949 10.8855 15.3949 9.51494 14.0244L8.485 12.9944L1.2063 20.2262C1.48131 20.3578 1.7853 20.4376 2.11 20.4376H21.8913C22.216 20.4376 22.5199 20.3578 22.795 20.2262L15.5163 12.9944Z" fill="white"/>
</g>
<defs>
<clipPath id="clip0">
<rect width="24" height="24" fill="white"/>
</clipPath>
</defs>
</svg>
