<svg width="24" height="24" viewBox="0 0 24 24" fill="none" xmlns="http://www.w3.org/2000/svg">
<path d="M0 3.4V4.3164V19.6836V20.6H24V19.6836V4.3164V3.4H0ZM14.65 12.2256L12.4716 14.4144C12.2068 14.6604 11.7924 14.66 11.5388 14.4248L9.3496 12.2256L9.3688 12.2068L1.4588 4.2H22.5464L14.6308 12.2072L14.65 12.2256ZM8.2096 12.2132L0.8 19.342V4.7692L8.2096 12.2132ZM8.7736 12.78L10.9828 14.9996C11.2664 15.264 11.6304 15.3968 11.996 15.3968C12.3652 15.3968 12.736 15.2612 13.0284 14.9888L15.2268 12.78L22.5216 19.8H1.4744L8.7736 12.78ZM15.7908 12.2136L23.2 4.7688V19.342L15.7908 12.2136Z" fill="white"/>
</svg>
