<svg width="86" height="20" viewBox="0 0 86 20" fill="none" xmlns="http://www.w3.org/2000/svg">
<g clip-path="url(#clip0)">
<path d="M9.98787 0C4.53265 0 0.0902518 4.44556 0.0802238 9.90467C0.0802238 11.6508 0.531483 13.3567 1.40392 14.862L0 20L5.25466 18.6252C6.69869 19.418 8.33325 19.8294 9.98787 19.8294C15.4431 19.8294 19.8855 15.3838 19.8955 9.9147C19.8955 7.26543 18.8626 4.77672 16.9974 2.90015C15.1222 1.03362 12.6353 0 9.98787 0ZM9.98787 18.1535C8.50373 18.1535 7.0597 17.7521 5.79617 17.0095L5.49533 16.8289L2.37663 17.6417L3.20895 14.6011L3.00839 14.29C2.1861 12.9754 1.74487 11.4601 1.7549 9.90467C1.7549 5.35876 5.44519 1.66583 9.98787 1.66583C12.184 1.66583 14.2498 2.52885 15.8041 4.0843C17.3584 5.63974 18.2108 7.70697 18.2108 9.9147C18.2108 14.4606 14.5205 18.1535 9.98787 18.1535ZM14.5005 11.9819C14.2498 11.8615 13.0364 11.2594 12.8057 11.1791C12.5751 11.0988 12.4146 11.0587 12.2442 11.2995C12.0837 11.5504 11.6024 12.1024 11.462 12.273C11.3216 12.4335 11.1712 12.4636 10.9305 12.3332C10.6798 12.2127 9.88759 11.9518 8.94496 11.1089C8.21291 10.4566 7.71152 9.64375 7.57112 9.39287C7.43073 9.142 7.55107 9.01154 7.68143 8.89112C7.79174 8.78073 7.93213 8.6001 8.05247 8.45961C8.1728 8.31912 8.21292 8.20873 8.30317 8.04817C8.38339 7.88761 8.34328 7.73708 8.28311 7.61666C8.22294 7.49624 7.72154 6.27195 7.52098 5.78023C7.32043 5.29854 7.11987 5.35876 6.95942 5.35876C6.81903 5.34872 6.64855 5.34872 6.4881 5.34872C6.32765 5.34872 6.0569 5.40893 5.82626 5.65981C5.59561 5.91069 4.96385 6.50276 4.96385 7.72704C4.96385 8.94129 5.84631 10.1254 5.97668 10.286C6.09701 10.4466 7.72154 12.9553 10.2085 14.0291C10.8001 14.28 11.2614 14.4405 11.6224 14.5509C12.2141 14.7416 12.7556 14.7115 13.1768 14.6513C13.6481 14.581 14.6409 14.0492 14.8514 13.4772C15.062 12.8951 15.062 12.4034 14.9918 12.3031C14.9116 12.1726 14.7512 12.1124 14.5005 11.9819ZM32.0193 11.8314H31.9893L30.3447 5.19819H28.3692L26.7045 11.7411H26.6744L25.1502 5.19819H23.0343L25.5814 14.8219H27.7173L29.3218 8.27898H29.3519L30.9764 14.8219H33.0723L35.6595 5.19819H33.5937L32.0193 11.8314ZM42.1175 8.45961C41.927 8.20873 41.6663 8.01806 41.3454 7.87757C41.0144 7.73708 40.5933 7.66683 40.0919 7.66683C39.7309 7.66683 39.3698 7.75715 38.9888 7.94782C38.6077 8.12845 38.3069 8.4295 38.0562 8.83091H38.006V5.20823H36.1007V14.8319H38.006V11.1791C38.006 10.4666 38.1264 9.96488 38.357 9.65379C38.5877 9.3427 38.9687 9.19217 39.4902 9.19217C39.9515 9.19217 40.2623 9.33266 40.4428 9.61365C40.6233 9.89463 40.7136 10.3261 40.7136 10.8981V14.8319H42.6289V10.5369C42.6289 10.1054 42.5888 9.714 42.5186 9.36277C42.4384 9.01154 42.298 8.70045 42.1175 8.45961ZM49.9895 13.2765V9.65379C49.9895 9.23231 49.8992 8.89112 49.7087 8.64024C49.5182 8.37933 49.2775 8.18866 48.9867 8.03813C48.6858 7.89764 48.3649 7.79729 48.0039 7.74711C47.6429 7.69694 47.292 7.67687 46.941 7.67687C46.5599 7.67687 46.1688 7.71701 45.7878 7.78726C45.4067 7.86754 45.0657 7.98796 44.7549 8.16859C44.454 8.34922 44.1933 8.59007 44.0028 8.88108C43.8022 9.18214 43.6919 9.55344 43.6618 9.99498H45.5772C45.6173 9.61365 45.7376 9.35273 45.9582 9.18214C46.1688 9.02158 46.4697 8.94129 46.8507 8.94129C47.0212 8.94129 47.1816 8.95133 47.3321 8.9714C47.4825 8.99147 47.6128 9.04165 47.7232 9.10186C47.8335 9.1721 47.9237 9.26242 47.9939 9.38284C48.0641 9.50326 48.0942 9.66382 48.0942 9.87456C48.1042 10.0753 48.044 10.2258 47.9237 10.3261C47.7934 10.4265 47.6229 10.5068 47.4123 10.5569C47.2017 10.6071 46.951 10.6473 46.6702 10.6774C46.3894 10.7075 46.1086 10.7376 45.8178 10.7878C45.527 10.8279 45.2462 10.8981 44.9655 10.9684C44.6847 11.0487 44.434 11.1591 44.2134 11.3096C43.9927 11.4601 43.8122 11.6708 43.6718 11.9217C43.5315 12.1826 43.4613 12.5038 43.4613 12.8951C43.4613 13.2564 43.5214 13.5675 43.6418 13.8284C43.7621 14.0893 43.9326 14.3 44.1432 14.4706C44.3538 14.6412 44.6145 14.7717 44.8953 14.852C45.1861 14.9323 45.4869 14.9724 45.8279 14.9724C46.2591 14.9724 46.6802 14.9122 47.0914 14.7817C47.5025 14.6513 47.8635 14.4405 48.1644 14.1194C48.1744 14.2398 48.1844 14.3502 48.2145 14.4606C48.2346 14.571 48.2647 14.6814 48.3048 14.7918H50.2402C50.1499 14.6513 50.0898 14.4305 50.0496 14.1495C49.9995 13.8886 49.9895 13.5876 49.9895 13.2765ZM48.0741 12.1325C48.0741 12.2429 48.0641 12.3833 48.044 12.564C48.024 12.7446 47.9638 12.9252 47.8635 13.0958C47.7633 13.2664 47.6128 13.417 47.4023 13.5474C47.1917 13.6779 46.9009 13.7381 46.5298 13.7381C46.3794 13.7381 46.229 13.728 46.0886 13.6979C45.9482 13.6678 45.8178 13.6277 45.7075 13.5575C45.5972 13.4872 45.517 13.3969 45.4468 13.2765C45.3866 13.156 45.3565 13.0156 45.3565 12.845C45.3565 12.6643 45.3866 12.5138 45.4468 12.4034C45.507 12.283 45.5972 12.1927 45.6975 12.1124C45.7978 12.0321 45.9181 11.9719 46.0585 11.9318C46.1989 11.8916 46.3393 11.8515 46.4797 11.8214C46.6301 11.7913 46.7805 11.7712 46.941 11.7511C47.0914 11.7311 47.2418 11.711 47.3822 11.6809C47.5226 11.6508 47.653 11.6207 47.7733 11.5805C47.8936 11.5404 47.9939 11.4802 48.0741 11.4099V12.1325ZM53.5494 5.7702H51.6441V7.8575H50.4909V9.142H51.6441V13.2464C51.6441 13.5976 51.7043 13.8786 51.8146 14.0993C51.9349 14.3101 52.0954 14.4807 52.2959 14.6011C52.4965 14.7215 52.7271 14.7918 52.9979 14.8319C53.2586 14.8721 53.5394 14.8921 53.8402 14.8921C54.0308 14.8921 54.2213 14.8921 54.4218 14.8821C54.6224 14.8721 54.8029 14.852 54.9634 14.8319V13.3467C54.8731 13.3668 54.7828 13.3768 54.6826 13.3869C54.5823 13.3969 54.482 13.3969 54.3717 13.3969C54.0508 13.3969 53.8302 13.3467 53.7299 13.2363C53.6196 13.1259 53.5695 12.9152 53.5695 12.5941V9.142H54.9734V7.8575H53.5695V5.7702H53.5494ZM61.4515 11.7712C61.3211 11.5504 61.1606 11.3698 60.9501 11.2193C60.7395 11.0687 60.5088 10.9483 60.2481 10.858C59.9874 10.7677 59.7166 10.6974 59.4358 10.6272C59.1651 10.567 58.9044 10.5068 58.6436 10.4566C58.3829 10.4064 58.1523 10.3462 57.9517 10.276C57.7511 10.2057 57.5907 10.1254 57.4603 10.0151C57.33 9.90467 57.2698 9.76417 57.2698 9.59358C57.2698 9.45309 57.2999 9.33266 57.3801 9.25238C57.4503 9.1721 57.5405 9.10186 57.6408 9.06172C57.7411 9.02158 57.8614 8.99147 57.9818 8.9714C58.1121 8.96136 58.2225 8.95133 58.3328 8.95133C58.6737 8.95133 58.9745 9.01154 59.2252 9.142C59.4759 9.27245 59.6163 9.52333 59.6464 9.8846H61.4615C61.4214 9.45309 61.3111 9.10186 61.1306 8.81084C60.9501 8.52985 60.7194 8.29905 60.4386 8.12845C60.1578 7.95785 59.847 7.83743 59.486 7.76719C59.135 7.69694 58.764 7.6568 58.3929 7.6568C58.0119 7.6568 57.6509 7.6869 57.2898 7.75715C56.9288 7.8274 56.6079 7.93778 56.3171 8.10838C56.0263 8.27898 55.7957 8.49975 55.6252 8.79077C55.4547 9.08179 55.3645 9.44305 55.3645 9.89463C55.3645 10.1957 55.4246 10.4566 55.555 10.6673C55.6753 10.8781 55.8458 11.0487 56.0564 11.1892C56.267 11.3297 56.4976 11.44 56.7684 11.5304C57.0291 11.6207 57.2999 11.6909 57.5807 11.7511C58.2626 11.8916 58.794 12.0421 59.1751 12.1826C59.5562 12.3231 59.7467 12.5439 59.7467 12.8249C59.7467 12.9955 59.7066 13.136 59.6264 13.2464C59.5461 13.3567 59.4459 13.4471 59.3255 13.5173C59.2052 13.5876 59.0648 13.6377 58.9244 13.6678C58.774 13.6979 58.6336 13.718 58.5032 13.718C58.3127 13.718 58.1322 13.6979 57.9617 13.6478C57.7912 13.6076 57.6308 13.5374 57.5004 13.437C57.3701 13.3467 57.2598 13.2263 57.1695 13.0758C57.0893 12.9252 57.0391 12.7546 57.0391 12.5439H55.2241C55.2441 13.0156 55.3444 13.3969 55.545 13.708C55.7355 14.0191 55.9862 14.2699 56.287 14.4606C56.5879 14.6513 56.9288 14.7817 57.3199 14.862C57.701 14.9423 58.1021 14.9824 58.5032 14.9824C58.8943 14.9824 59.2854 14.9423 59.6665 14.8721C60.0475 14.7918 60.3885 14.6613 60.6793 14.4706C60.9801 14.28 61.2108 14.0291 61.4013 13.728C61.5818 13.417 61.6721 13.0356 61.6721 12.574C61.642 12.2629 61.5818 11.992 61.4515 11.7712ZM65.2521 5.20823L61.6219 14.8319H63.7479L64.5 12.6944H68.09L68.812 14.8319H71.0081L67.4181 5.20823H65.2521ZM65.0415 11.1089L66.295 7.57652H66.3251L67.5384 11.1089H65.0415ZM77.6166 8.8008C77.3558 8.45961 77.0249 8.18866 76.6338 7.97792C76.2427 7.76719 75.7714 7.66683 75.2199 7.66683C74.7887 7.66683 74.3976 7.74712 74.0366 7.91771C73.6756 8.08831 73.3848 8.35926 73.1441 8.74059H73.114V7.84747H71.2989V17.2604H73.2143V13.9589H73.2444C73.475 14.3001 73.7758 14.561 74.1368 14.7316C74.4979 14.9022 74.899 14.9925 75.3302 14.9925C75.8416 14.9925 76.2929 14.8921 76.6739 14.6914C77.055 14.4907 77.3759 14.2298 77.6266 13.8986C77.8873 13.5675 78.0678 13.1862 78.1982 12.7546C78.3185 12.3231 78.3887 11.8716 78.3887 11.4099C78.3887 10.9182 78.3285 10.4466 78.1982 9.98495C78.0678 9.5434 77.8773 9.142 77.6166 8.8008ZM76.3931 12.1826C76.343 12.4536 76.2427 12.6844 76.1124 12.8851C75.982 13.0858 75.8115 13.2564 75.6009 13.3768C75.3904 13.5073 75.1296 13.5675 74.8187 13.5675C74.5179 13.5675 74.2572 13.5073 74.0366 13.3768C73.816 13.2564 73.6455 13.0858 73.5151 12.8851C73.3848 12.6844 73.2945 12.4436 73.2343 12.1826C73.1742 11.9117 73.1441 11.6407 73.1441 11.3598C73.1441 11.0687 73.1742 10.7978 73.2243 10.5268C73.2744 10.2559 73.3747 10.0151 73.5051 9.81435C73.6355 9.60361 73.8059 9.44305 74.0165 9.31259C74.2271 9.18214 74.4878 9.11189 74.7987 9.11189C75.0995 9.11189 75.3603 9.18214 75.5708 9.31259C75.7814 9.44305 75.9519 9.61365 76.0923 9.82439C76.2227 10.0351 76.323 10.276 76.3831 10.5469C76.4433 10.8179 76.4734 11.0888 76.4734 11.3698C76.4734 11.6407 76.4433 11.9117 76.3931 12.1826ZM85.8094 9.99498C85.6791 9.5434 85.4885 9.142 85.2278 8.8008C84.9671 8.45961 84.6361 8.18866 84.245 7.97792C83.854 7.76719 83.3826 7.66683 82.8311 7.66683C82.3999 7.66683 82.0088 7.74712 81.6478 7.91771C81.2868 8.08831 80.996 8.35926 80.7553 8.74059H80.7252V7.84747H78.9202V17.2604H80.8355V13.9589H80.8656C81.0963 14.3001 81.3971 14.561 81.7581 14.7316C82.1191 14.9022 82.5202 14.9925 82.9514 14.9925C83.4629 14.9925 83.9041 14.8921 84.2952 14.6914C84.6763 14.4907 84.9971 14.2298 85.2478 13.8986C85.5086 13.5675 85.6991 13.1862 85.8194 12.7546C85.9498 12.3231 86.01 11.8716 86.01 11.4099C86 10.9182 85.9398 10.4466 85.8094 9.99498ZM84.0044 12.1826C83.9542 12.4536 83.854 12.6844 83.7336 12.8851C83.6033 13.0858 83.4328 13.2564 83.2222 13.3768C83.0116 13.5073 82.7509 13.5675 82.44 13.5675C82.1392 13.5675 81.8784 13.5073 81.6578 13.3768C81.4372 13.2564 81.2667 13.0858 81.1364 12.8851C81.006 12.6844 80.9158 12.4436 80.8556 12.1826C80.7954 11.9117 80.7654 11.6407 80.7654 11.3598C80.7654 11.0687 80.7954 10.7978 80.8456 10.5268C80.8957 10.2559 80.996 10.0151 81.1264 9.81435C81.2567 9.60361 81.4272 9.44305 81.6378 9.31259C81.8484 9.18214 82.1091 9.11189 82.43 9.11189C82.7308 9.11189 82.9916 9.18214 83.2021 9.31259C83.4127 9.44305 83.5832 9.61365 83.7236 9.82439C83.854 10.0351 83.9542 10.276 84.0144 10.5469C84.0746 10.8179 84.1047 11.0888 84.1047 11.3698C84.0846 11.6407 84.0646 11.9117 84.0044 12.1826Z" fill="white"/>
</g>
<defs>
<clipPath id="clip0">
<rect width="86" height="20" fill="white"/>
</clipPath>
</defs>
</svg>
