<svg width="16" height="16" viewBox="0 0 16 16" fill="none" xmlns="http://www.w3.org/2000/svg">
<g clip-path="url(#clip0)">
<path d="M9.46585 8.01317L15.6959 1.7829C16.1014 1.37765 16.1014 0.722408 15.6959 0.317154C15.2907 -0.0880992 14.6354 -0.0880992 14.2302 0.317154L7.99991 6.54743L1.76983 0.317154C1.36439 -0.0880992 0.709336 -0.0880992 0.304083 0.317154C-0.101361 0.722408 -0.101361 1.37765 0.304083 1.7829L6.53417 8.01317L0.304083 14.2434C-0.101361 14.6487 -0.101361 15.3039 0.304083 15.7092C0.506045 15.9113 0.771595 16.0129 1.03696 16.0129C1.30232 16.0129 1.56768 15.9113 1.76983 15.7092L7.99991 9.47892L14.2302 15.7092C14.4323 15.9113 14.6977 16.0129 14.9631 16.0129C15.2284 16.0129 15.4938 15.9113 15.6959 15.7092C16.1014 15.3039 16.1014 14.6487 15.6959 14.2434L9.46585 8.01317Z" fill="#2D2D2D"/>
</g>
<defs>
<clipPath id="clip0">
<rect width="16" height="16" fill="white"/>
</clipPath>
</defs>
</svg>
