<svg width="22" height="22" viewBox="0 0 22 22" fill="none" xmlns="http://www.w3.org/2000/svg">
<path d="M0.859375 10.1406H21.1406C21.6153 10.1406 22 10.5254 22 11C22 11.4746 21.6153 11.8594 21.1406 11.8594H0.859375C0.384743 11.8594 0 11.4746 0 11C0 10.5254 0.384743 10.1406 0.859375 10.1406Z" fill="#181818"/>
<path d="M0.859375 3.26562H21.1406C21.6153 3.26562 22 3.65037 22 4.125C22 4.59963 21.6153 4.98438 21.1406 4.98438H0.859375C0.384743 4.98438 0 4.59963 0 4.125C0 3.65037 0.384743 3.26562 0.859375 3.26562Z" fill="#181818"/>
<path d="M0.859375 17.0156H21.1406C21.6153 17.0156 22 17.4004 22 17.875C22 18.3496 21.6153 18.7344 21.1406 18.7344H0.859375C0.384743 18.7344 0 18.3496 0 17.875C0 17.4004 0.384743 17.0156 0.859375 17.0156Z" fill="#181818"/>
</svg>
