<svg width="16" height="17" viewBox="0 0 16 17" fill="none" xmlns="http://www.w3.org/2000/svg">
<g clip-path="url(#clip0)">
<path d="M15.8095 15.6178L12.0805 11.8888C11.8264 11.6347 11.4149 11.6347 11.1608 11.8888C10.9067 12.1427 10.9067 12.5546 11.1608 12.8085L14.8898 16.5375C15.0168 16.6645 15.1831 16.7281 15.3496 16.7281C15.5159 16.7281 15.6824 16.6645 15.8095 16.5375C16.0636 16.2836 16.0636 15.8717 15.8095 15.6178Z" fill="#4B4B4B"/>
<path d="M7.04606 0.728516C3.16097 0.728516 0 3.88948 0 7.77458C0 11.6599 3.16097 14.8206 7.04606 14.8206C10.9314 14.8206 14.0921 11.6599 14.0921 7.77458C14.0921 3.88948 10.9314 0.728516 7.04606 0.728516ZM7.04606 13.5199C3.87816 13.5199 1.30081 10.9425 1.30081 7.77461C1.30081 4.6067 3.87816 2.02933 7.04606 2.02933C10.214 2.02933 12.7913 4.60667 12.7913 7.77458C12.7913 10.9425 10.214 13.5199 7.04606 13.5199Z" fill="#4B4B4B"/>
</g>
<defs>
<clipPath id="clip0">
<rect width="16" height="16" fill="white" transform="translate(0 0.728516)"/>
</clipPath>
</defs>
</svg>
